<svg width="20" height="20" viewBox="0 0 20 20" fill="none" xmlns="http://www.w3.org/2000/svg">
<g clip-path="url(#clip0_19_22)">
<path d="M17.6159 0H2.38411C1.0596 0 0 1.09635 0 2.39203V17.608C0 18.9369 1.09272 20 2.38411 20H17.6159C18.9404 20 20 18.9037 20 17.608V2.42525C20 1.09635 18.9404 0 17.6159 0ZM18.543 2.42525V9.30233H10.7285V1.49502H17.6159C18.1126 1.49502 18.543 1.92691 18.543 2.42525ZM2.38411 1.49502H9.27152V9.2691H1.45695V2.42525C1.45695 1.92691 1.88742 1.49502 2.38411 1.49502ZM1.45695 17.6412V10.7641H9.23841V18.5382H2.38411C1.88742 18.5714 1.45695 18.1395 1.45695 17.6412ZM17.6159 18.5714H10.7285V10.7641H18.5099V17.6412C18.543 18.1395 18.1126 18.5714 17.6159 18.5714Z" fill="#005B87"/>
<path d="M3.70858 6.57813H4.63573V7.50836C4.63573 7.90703 4.96686 8.23926 5.36421 8.23926C5.76156 8.23926 6.09269 7.90703 6.09269 7.50836V6.57813H7.01984C7.41719 6.57813 7.74831 6.2459 7.74831 5.84723C7.74831 5.44856 7.41719 5.11633 7.01984 5.11633H6.09269V4.1861C6.09269 3.78743 5.76156 3.4552 5.36421 3.4552C4.96686 3.4552 4.63573 3.78743 4.63573 4.1861V5.11633H3.70858C3.31123 5.11633 2.9801 5.44856 2.9801 5.84723C2.9801 6.2459 3.27812 6.57813 3.70858 6.57813Z" fill="#005B87"/>
<path d="M13.5761 5.38205L12.8476 6.11294C12.5496 6.41195 12.5496 6.87706 12.8476 7.17607C12.98 7.30896 13.1787 7.40863 13.3774 7.40863C13.5761 7.40863 13.7416 7.34218 13.9072 7.17607L14.6357 6.44517L15.3641 7.17607C15.4966 7.30896 15.6953 7.40863 15.8939 7.40863C16.0926 7.40863 16.2913 7.34218 16.4237 7.17607C16.7218 6.87706 16.7218 6.41195 16.4237 6.11294L15.6953 5.38205L16.4237 4.65115C16.7218 4.35215 16.7218 3.88703 16.4237 3.58803C16.1257 3.28902 15.6622 3.28902 15.3641 3.58803L14.6357 4.35215L13.9072 3.62125C13.6092 3.32225 13.1456 3.32225 12.8476 3.62125C12.5496 3.92025 12.5496 4.38537 12.8476 4.68437L13.5761 5.38205Z" fill="#005B87"/>
<path d="M6.62247 13.4884H4.10592C3.70857 13.4884 3.37744 13.8206 3.37744 14.2193C3.37744 14.6179 3.70857 14.9502 4.10592 14.9502H6.62247C7.01983 14.9502 7.35095 14.6179 7.35095 14.2193C7.35095 13.8206 7.05294 13.4884 6.62247 13.4884Z" fill="#005B87"/>
<path d="M15.3641 12.8904L12.8476 15.4153C12.5496 15.7143 12.5496 16.1794 12.8476 16.4784C12.98 16.6113 13.1787 16.711 13.3774 16.711C13.5761 16.711 13.7416 16.6445 13.9072 16.4784L16.4237 13.9535C16.7218 13.6545 16.7218 13.1894 16.4237 12.8904C16.1257 12.5914 15.6622 12.5914 15.3641 12.8904Z" fill="#005B87"/>
</g>
<defs>
<clipPath id="clip0_19_22">
<rect width="20" height="20" fill="white"/>
</clipPath>
</defs>
</svg>
