<svg width="18" height="16" viewBox="0 0 18 16" fill="none" xmlns="http://www.w3.org/2000/svg">
<path d="M17.0156 0.869551C16.9194 0.647294 16.76 0.45822 16.5572 0.325844C16.3544 0.193468 16.1172 0.123632 15.875 0.12502H2.12499C1.88307 0.125497 1.64647 0.196169 1.44392 0.328463C1.24137 0.460757 1.08156 0.648988 0.983875 0.87032C0.886194 1.09165 0.854841 1.33658 0.893619 1.57538C0.932398 1.81418 1.03964 2.03659 1.20234 2.21565L1.20859 2.22268L6.49999 7.87268V13.875C6.49994 14.1013 6.56129 14.3233 6.67749 14.5174C6.79369 14.7115 6.9604 14.8704 7.15983 14.9772C7.35926 15.084 7.58394 15.1347 7.80991 15.1239C8.03588 15.113 8.25468 15.0411 8.44296 14.9156L10.943 13.2485C11.1143 13.1343 11.2549 12.9796 11.352 12.798C11.4492 12.6165 11.5 12.4137 11.5 12.2078V7.87268L16.7922 2.22268L16.7984 2.21565C16.9628 2.03741 17.0711 1.8147 17.1098 1.57531C17.1484 1.33592 17.1156 1.09045 17.0156 0.869551ZM10.4203 7.20158C10.3122 7.31621 10.2514 7.46745 10.25 7.62502V12.2078L7.74999 13.875V7.62502C7.75004 7.46631 7.68971 7.31353 7.58124 7.19768L2.12499 1.37502H15.875L10.4203 7.20158Z" fill="#CFCFCF"/>
</svg>
