<svg width="19" height="19" viewBox="0 0 19 19" fill="none" xmlns="http://www.w3.org/2000/svg">
<path d="M18.7172 16.2391L15.6056 1.44537C15.5654 1.25191 15.4873 1.06831 15.3759 0.905108C15.2645 0.741911 15.1219 0.602335 14.9564 0.494399C14.7909 0.386463 14.6057 0.312295 14.4114 0.276155C14.2171 0.240015 14.0176 0.242616 13.8244 0.283807L9.43594 1.22693C9.04776 1.31193 8.70885 1.54675 8.49291 1.88032C8.27696 2.21389 8.20146 2.61923 8.28281 3.00818L11.3944 17.8019C11.4637 18.1395 11.6471 18.4428 11.9138 18.661C12.1805 18.8792 12.5142 18.9989 12.8588 19.0001C12.9653 18.9999 13.0715 18.9886 13.1756 18.9663L17.5641 18.0232C17.9527 17.938 18.292 17.7027 18.5079 17.3686C18.7239 17.0344 18.7991 16.6285 18.7172 16.2391ZM9.75 2.70162C9.75 2.696 9.75 2.69318 9.75 2.69318L14.1375 1.75568L14.4497 3.24349L10.0622 4.18756L9.75 2.70162ZM10.3706 5.65193L14.76 4.70974L15.0731 6.20037L10.6875 7.14349L10.3706 5.65193ZM10.9931 8.61162L15.3825 7.66849L16.6294 13.5972L12.24 14.5404L10.9931 8.61162ZM17.25 16.5569L12.8625 17.4944L12.5503 16.0066L16.9378 15.0626L17.25 16.5485C17.25 16.5541 17.25 16.5569 17.25 16.5569ZM6.75 1.00006H2.25C1.85218 1.00006 1.47064 1.15809 1.18934 1.4394C0.908035 1.7207 0.75 2.10223 0.75 2.50006V17.5001C0.75 17.8979 0.908035 18.2794 1.18934 18.5607C1.47064 18.842 1.85218 19.0001 2.25 19.0001H6.75C7.14782 19.0001 7.52936 18.842 7.81066 18.5607C8.09196 18.2794 8.25 17.8979 8.25 17.5001V2.50006C8.25 2.10223 8.09196 1.7207 7.81066 1.4394C7.52936 1.15809 7.14782 1.00006 6.75 1.00006ZM2.25 2.50006H6.75V4.00006H2.25V2.50006ZM2.25 5.50006H6.75V14.5001H2.25V5.50006ZM6.75 17.5001H2.25V16.0001H6.75V17.5001Z" fill="#767676"/>
</svg>
