<svg width="20" height="20" viewBox="0 0 20 20" fill="none" xmlns="http://www.w3.org/2000/svg">
<g clip-path="url(#clip0_19_11)">
<path d="M10.1509 0.642944C4.89312 0.642944 0.642822 4.89324 0.642822 10.151C0.642822 15.4087 4.89312 19.6905 10.1509 19.6905C15.4087 19.6905 19.6905 15.4087 19.6905 10.151C19.6905 4.89324 15.4087 0.642944 10.1509 0.642944ZM10.1509 18.2738C5.68021 18.2738 2.05959 14.6216 2.05959 10.151C2.05959 5.68034 5.68021 2.05971 10.1509 2.05971C14.6216 2.05971 18.2737 5.71182 18.2737 10.1824C18.2737 14.6216 14.6216 18.2738 10.1509 18.2738Z" fill="#005B86"/>
<path d="M10.7176 3.88571C9.80463 3.72829 8.86012 3.98016 8.16748 4.57835C7.47484 5.17654 7.06555 6.0266 7.06555 6.97111C7.06555 7.31743 7.12852 7.66375 7.25445 8.01007C7.38039 8.38788 7.78968 8.57678 8.16748 8.45084C8.54528 8.32491 8.73419 7.91562 8.60825 7.53782C8.54528 7.34891 8.5138 7.16001 8.5138 6.97111C8.5138 6.46737 8.73419 5.99512 9.11199 5.68028C9.48979 5.36544 9.99353 5.20802 10.5287 5.30248C11.1899 5.42841 11.7566 5.99512 11.8825 6.65627C12.0085 7.44337 11.5992 8.23046 10.875 8.54529C10.0565 8.89161 9.52128 9.71019 9.52128 10.6547V12.6067C9.52128 12.9845 9.83611 13.3308 10.2454 13.3308C10.6232 13.3308 10.9695 13.016 10.9695 12.6067V10.6547C10.9695 10.3084 11.1584 9.99354 11.4418 9.86761C12.7955 9.3009 13.5826 7.88414 13.3308 6.43589C12.9845 5.14506 11.977 4.1061 10.7176 3.88571Z" fill="#005B86"/>
<path d="M10.1823 14.4957H10.0879C9.71009 14.4957 9.36377 14.8105 9.36377 15.2198C9.36377 15.6291 9.67861 15.944 10.0879 15.944H10.1823C10.5601 15.944 10.8749 15.6291 10.8749 15.2198C10.8749 14.8105 10.5916 14.4957 10.1823 14.4957Z" fill="#005B86"/>
</g>
<defs>
<clipPath id="clip0_19_11">
<rect width="20" height="20" fill="white"/>
</clipPath>
</defs>
</svg>
